<svg xmlns="http://www.w3.org/2000/svg" viewBox="0 0 114 114"><path fill-rule="evenodd" fill="currentColor" d="M4.00 16.20A6.00 6.00 0 0 1 10.00 10.20L59.51 10.20A6.00 6.00 0 0 1 63.76 11.96L70.71 18.91A4.86 4.86 0 0 1 67.27 27.20L27.00 27.20A6.00 6.00 0 0 0 21.00 33.20L21.00 87.20A6.00 6.00 0 0 0 27.00 93.20L81.00 93.20A6.00 6.00 0 0 0 87.00 87.20L87.00 46.93A4.86 4.86 0 0 1 95.29 43.49L102.24 50.44A6.00 6.00 0 0 1 104.00 54.69L104.00 104.20A6.00 6.00 0 0 1 98.00 110.20L10.00 110.20A6.00 6.00 0 0 1 4.00 104.20Z"/><path fill="currentColor" d="M76.49 10.83A4.00 4.00 0 0 1 79.32 4.00L105.14 4.00A4.00 4.00 0 0 1 109.14 8.00L109.14 33.82A4.00 4.00 0 0 1 102.31 36.65Z"/></svg>
