<svg xmlns="http://www.w3.org/2000/svg" viewBox="0 0 1024 1024">
  <!-- B: the mark Clipframes already has (site/public/mark.svg), a frame with its corner clipped
       off and lifted away, in the app's colours: the frame white, the clipped piece orange. -->
  <rect width="1024" height="1024" rx="228" fill="#121213"/>
  <g transform="translate(228 220) scale(5)">
    <path fill="#fff" fill-rule="evenodd" d="M4.00 16.20A6.00 6.00 0 0 1 10.00 10.20L65.51 10.20A6.00 6.00 0 0 1 69.76 11.96L76.71 18.91A4.86 4.86 0 0 1 73.27 27.20L27.00 27.20A6.00 6.00 0 0 0 21.00 33.20L21.00 87.20A6.00 6.00 0 0 0 27.00 93.20L81.00 93.20A6.00 6.00 0 0 0 87.00 87.20L87.00 40.93A4.86 4.86 0 0 1 95.29 37.49L102.24 44.44A6.00 6.00 0 0 1 104.00 48.69L104.00 104.20A6.00 6.00 0 0 1 98.00 110.20L10.00 110.20A6.00 6.00 0 0 1 4.00 104.20Z"/>
    <path fill="#f76808" d="M82.49 10.83A4.00 4.00 0 0 1 85.32 4.00L105.50 4.00A4.00 4.00 0 0 1 109.50 8.00L109.50 28.18A4.00 4.00 0 0 1 102.67 31.01Z"/>
  </g>
</svg>
